<?xml version="1.0" encoding="utf-8"?>
<!-- Generator: Adobe Illustrator 16.0.3, SVG Export Plug-In . SVG Version: 6.00 Build 0)  -->
<!DOCTYPE svg PUBLIC "-//W3C//DTD SVG 1.1//EN" "http://www.w3.org/Graphics/SVG/1.1/DTD/svg11.dtd">
<svg version="1.1" id="svg2413" xmlns:svg="http://www.w3.org/2000/svg"
	 xmlns="http://www.w3.org/2000/svg" xmlns:xlink="http://www.w3.org/1999/xlink" x="0px" y="0px" width="590.602px" height="600px"
	 viewBox="0 0 590.602 600" enable-background="new 0 0 590.602 600" xml:space="preserve">
<ellipse fill="#1D1D1B" cx="295.301" cy="299.5" rx="295.301" ry="300.5"/>
<path id="path1" fill="#FFFFFF" stroke="#FFFFFF" stroke-miterlimit="10" d="M304.048,390.655
	c5.506-8.035,34.882-50.91,34.882-50.91l-22.388,61.572l69.407,10.079l-69.407,10.075l26.867,52.618c0,0-33.521-35.241-38.257-40.22
	c1.953,76.299,2.433,95.076,2.433,95.076s171.284-79.488,76.126-255.253c0,0,118.67-130.985,11.196-211.59
	c0,0,183.599,110.833,67.171,301.15c0,0,96.275-94.037,45.898-189.198c0,0,87.321,123.149-19.031,258.611
	c0,0,29.106-17.915,54.855-86.205c0,0-18.783,203.301-246.234,205.968c0,0.026,0,0.026,0,0.026c-0.759,0-1.512,0-2.268-0.004
	c-0.752,0.004-1.508,0.004-2.265,0.004c0,0,0,0,0-0.026C65.583,549.761,46.801,346.46,46.801,346.46
	c25.747,68.29,54.853,86.205,54.853,86.205C-4.698,297.203,82.623,174.054,82.623,174.054
	c-50.379,95.162,45.901,189.198,45.901,189.198c-116.43-190.317,67.167-301.15,67.167-301.15
	c-107.472,80.605,11.198,211.59,11.198,211.59c-95.157,175.765,76.126,255.253,76.126,255.253s0.478-18.777,2.43-95.076
	c-4.737,4.979-38.256,40.22-38.256,40.22l26.867-52.618l-69.406-10.075l69.406-10.079l-22.386-61.572
	c0,0,29.374,42.875,34.878,50.91c2.495-97.458,8.681-339.271,8.711-340.413c0.011-2.681,0.011-2.696,0.011-2.696
	s0,0.002,0.027,1.114c0.03-1.112,0.03-1.114,0.03-1.114s0,0.015,0.012,2.696C295.39,52.15,301.561,293.419,304.048,390.655
	L304.048,390.655z"/>
</svg>
