<?xml version="1.0" standalone="no"?>
<!DOCTYPE svg PUBLIC "-//W3C//DTD SVG 20010904//EN"
 "http://www.w3.org/TR/2001/REC-SVG-20010904/DTD/svg10.dtd">
<svg version="1.0" xmlns="http://www.w3.org/2000/svg"
 width="612.000000pt" height="276.000000pt" viewBox="0 0 612.000000 276.000000"
 preserveAspectRatio="xMidYMid meet">

<g transform="translate(0.000000,276.000000) scale(0.100000,-0.100000)"
fill="#000000" stroke="none">
<path d="M1158 2621 c-215 -69 -320 -264 -249 -466 26 -74 51 -111 141 -207
39 -43 69 -82 65 -88 -4 -6 -175 -10 -496 -10 l-489 0 0 -215 0 -215 594 0
c357 0 614 4 646 10 125 24 223 97 277 208 25 51 28 67 28 162 0 99 -2 110
-32 170 -21 42 -64 98 -122 160 -50 52 -90 98 -91 103 0 4 128 7 285 7 l285 0
0 -410 0 -410 215 0 215 0 0 410 0 410 265 0 265 0 0 200 0 200 -872 -1 c-816
0 -877 -1 -930 -18z"/>
<path d="M3155 2630 c-14 -23 -364 -1193 -359 -1201 3 -5 104 -9 224 -9 l219
0 27 90 27 90 208 0 207 0 29 -87 30 -88 213 -3 c118 -1 217 1 221 5 4 5 -76
278 -179 608 l-187 600 -337 3 c-219 1 -339 -1 -343 -8z m403 -530 c27 -85 47
-158 45 -162 -2 -5 -47 -8 -99 -8 -68 0 -94 3 -94 13 0 15 93 318 96 314 2 -2
25 -72 52 -157z"/>
<path d="M4290 2030 l0 -610 240 0 240 0 0 170 c0 94 3 170 7 170 4 0 73 -65
153 -144 205 -203 160 -190 663 -194 l397 -3 0 220 0 221 -324 0 c-382 0 -384
1 -282 74 120 85 160 162 160 306 1 84 -3 102 -28 157 -32 69 -115 157 -182
191 -96 49 -132 52 -603 52 l-441 0 0 -610z m762 260 c63 -18 81 -91 32 -129
-24 -19 -40 -21 -165 -21 l-139 0 0 73 c0 41 3 77 7 80 10 11 224 8 265 -3z"/>
<path d="M136 1332 c-3 -5 79 -279 182 -610 l187 -602 206 0 206 0 69 225 c38
124 71 225 74 225 3 0 27 -73 54 -162 27 -90 58 -191 68 -225 l19 -63 208 0
208 0 117 382 c64 211 147 483 185 606 l68 222 -233 0 -232 0 -22 -72 c-63
-211 -72 -239 -77 -234 -3 2 -26 71 -52 153 l-47 148 -130 8 c-71 4 -185 6
-254 5 l-125 -3 -44 -157 c-25 -87 -47 -155 -50 -152 -3 3 -27 74 -52 157
l-45 152 -241 3 c-133 1 -244 -1 -247 -6z"/>
<path d="M2202 1331 c-11 -7 -372 -1172 -372 -1201 0 -7 75 -10 223 -10 l223
0 27 84 28 84 152 7 c84 4 177 5 207 3 l55 -3 28 -88 29 -87 219 0 c182 0 219
2 219 14 0 22 -361 1180 -372 1194 -8 9 -87 12 -332 12 -176 0 -327 -4 -334
-9z m438 -688 c0 -10 -27 -13 -101 -13 -80 0 -100 3 -96 13 3 8 24 74 47 148
22 74 44 141 47 149 5 14 103 -268 103 -297z"/>
<path d="M5161 1329 c-132 -22 -258 -120 -300 -234 -27 -72 -27 -163 -1 -241
26 -75 50 -111 139 -205 39 -42 71 -82 71 -88 0 -8 -94 -11 -324 -11 -295 0
-326 2 -346 18 l-22 18 50 32 c71 46 137 123 159 185 12 36 18 80 18 142 0 76
-5 99 -27 146 -48 105 -141 183 -259 220 -56 17 -97 19 -515 19 l-454 0 0
-605 0 -605 240 0 240 0 0 172 0 172 143 -142 c111 -110 156 -147 202 -169
l60 -28 560 0 560 0 62 29 c73 34 153 113 186 183 18 40 22 66 22 158 0 143
-18 182 -148 327 -54 58 -97 109 -97 112 0 3 137 6 305 6 l305 0 -2 198 -3
197 -385 1 c-212 1 -409 -2 -439 -7z m-1017 -360 c33 -26 36 -79 6 -109 -18
-18 -33 -20 -165 -20 l-145 0 0 75 0 75 139 0 c125 0 141 -2 165 -21z"/>
</g>
</svg>
