<?xml version="1.0" standalone="no"?>
<!DOCTYPE svg PUBLIC "-//W3C//DTD SVG 20010904//EN"
 "http://www.w3.org/TR/2001/REC-SVG-20010904/DTD/svg10.dtd">
<svg version="1.0" xmlns="http://www.w3.org/2000/svg"
 width="586.000000pt" height="252.000000pt" viewBox="0 0 586.000000 252.000000"
 preserveAspectRatio="xMidYMid meet">

<g transform="translate(0.000000,252.000000) scale(0.100000,-0.100000)"
fill="#000000" stroke="none">
<path d="M1041 2504 c-168 -45 -272 -166 -279 -326 -7 -131 25 -201 150 -340
44 -48 77 -92 73 -98 -4 -7 -175 -10 -496 -10 l-489 0 0 -216 0 -215 627 3
c699 4 662 0 770 74 156 107 202 353 96 512 -16 22 -66 82 -112 132 -53 58
-80 95 -74 101 5 5 120 8 284 7 l274 -3 3 -412 2 -413 215 0 215 0 0 410 0
410 265 0 265 0 0 200 0 200 -867 -1 c-726 0 -877 -3 -922 -15z"/>
<path d="M3026 2512 c-13 -21 -365 -1196 -360 -1204 9 -14 430 -10 441 5 5 6
20 47 33 90 l24 77 207 0 207 0 29 -87 30 -88 213 -3 c118 -1 217 1 221 5 4 5
-77 278 -180 608 l-187 600 -336 3 c-185 1 -339 -2 -342 -6z m403 -533 c27
-85 47 -157 44 -161 -2 -5 -47 -8 -99 -8 -68 0 -94 3 -94 13 0 17 92 318 97
314 2 -2 25 -73 52 -158z"/>
<path d="M4162 1913 l3 -608 238 -3 237 -2 0 170 c0 93 3 170 8 170 4 0 66
-59 137 -131 72 -72 149 -141 171 -155 79 -47 148 -54 542 -54 l362 0 0 214 0
215 -320 3 c-276 3 -321 5 -335 19 -15 14 -10 20 52 66 73 53 125 120 145 187
7 23 12 79 12 126 0 70 -5 95 -27 143 -53 115 -173 209 -305 236 -34 7 -210
11 -488 11 l-434 0 2 -607z m767 256 c57 -20 71 -92 25 -128 -24 -19 -40 -21
-165 -21 l-139 0 0 80 0 80 124 0 c67 0 137 -5 155 -11z"/>
<path d="M3 1198 c2 -7 87 -280 188 -605 l184 -593 206 0 205 0 70 225 c38
124 72 225 75 225 3 0 24 -64 48 -142 23 -79 54 -180 68 -225 l25 -83 207 0
207 0 182 597 c101 329 183 601 182 606 0 4 -103 7 -229 7 l-229 0 -22 -72
c-12 -40 -33 -110 -47 -156 -13 -46 -27 -81 -31 -78 -3 4 -27 73 -52 154 l-47
147 -255 3 -255 2 -43 -155 c-23 -85 -46 -153 -50 -150 -3 2 -26 72 -50 155
l-44 150 -249 0 c-195 0 -248 -3 -244 -12z"/>
<path d="M2056 1193 c-3 -10 -84 -278 -181 -596 -96 -318 -175 -583 -175 -588
0 -5 94 -9 223 -9 l223 0 24 78 c13 42 28 83 33 90 8 9 57 12 211 10 l201 -3
30 -87 30 -88 217 0 c169 0 218 3 218 13 0 7 -82 278 -183 602 l-183 590 -342
3 c-318 2 -341 1 -346 -15z m453 -665 c1 -16 -10 -18 -100 -18 -82 0 -100 3
-96 14 3 8 24 74 46 147 23 74 44 141 48 149 6 15 101 -256 102 -292z"/>
<path d="M3220 605 l0 -605 240 0 240 0 0 172 0 171 148 -145 c124 -122 157
-149 207 -169 l60 -24 555 0 555 0 57 27 c76 35 148 104 184 175 27 54 29 66
29 168 0 100 -2 115 -28 167 -16 33 -68 100 -122 160 -52 57 -95 106 -95 111
0 4 137 7 305 7 l305 0 0 195 0 196 -432 -3 c-427 -3 -434 -3 -490 -26 -76
-31 -160 -108 -194 -178 -38 -78 -44 -177 -15 -262 28 -83 53 -121 140 -213
39 -42 71 -82 71 -88 0 -8 -94 -11 -324 -11 -301 0 -325 1 -347 19 l-23 18 31
16 c62 32 139 114 169 179 25 55 28 75 28 153 -1 147 -55 249 -174 325 -107
68 -120 70 -626 70 l-454 0 0 -605z m794 244 c33 -26 36 -79 6 -109 -18 -18
-33 -20 -165 -20 l-145 0 0 75 0 75 139 0 c125 0 141 -2 165 -21z"/>
</g>
</svg>
